<svg xmlns="http://www.w3.org/2000/svg" width="24" height="24" viewBox="0 0 24 24"><g fill="none"><circle cx="12" cy="12" r="12" fill="#E6EFF5"/><path fill="#9BBDD4" d="M19.908 9.404a.416.416 0 0 0-.317-.147h-1.558c-.384-.985-.884-1.95-1.454-2.314-1.968-1.257-7.19-1.257-9.158 0-.57.365-1.068 1.33-1.454 2.314H4.41a.413.413 0 0 0-.318.147.387.387 0 0 0-.083.332l.23 1.085c.04.185.208.317.401.317h.462a2.642 2.642 0 0 0-.664 1.757c-.003.776.3 1.478.855 1.975l.018.014v1.52c0 .328.276.596.615.596h1.436c.34 0 .615-.268.615-.597v-.61h8.046v.61c0 .33.275.597.615.597h1.436a.607.607 0 0 0 .614-.597v-1.49c.59-.523.871-1.244.875-1.964a2.636 2.636 0 0 0-.695-1.811h.492a.405.405 0 0 0 .401-.318l.231-1.085a.393.393 0 0 0-.084-.331zM8.096 7.94c1.569-1.003 6.239-1.003 7.807 0 .305.195.697.98 1.056 1.941H7.041c.358-.96.75-1.746 1.055-1.94zm-1.838 5.104c0-.648.542-1.174 1.21-1.174.667 0 1.208.526 1.208 1.174 0 .649-.54 1.175-1.209 1.175-.667 0-1.209-.526-1.209-1.175zm10.29 1.175c-.667 0-1.208-.526-1.208-1.175 0-.648.541-1.174 1.209-1.174s1.209.526 1.209 1.174c0 .649-.542 1.175-1.21 1.175z"/></g></svg>