<svg xmlns="http://www.w3.org/2000/svg" width="24" height="24" viewBox="0 0 24 24"><g fill="none"><circle cx="12" cy="12" r="12" fill="#9BBDD4"/><path fill="#FFF" d="M17.145 8.624c.534-.714.853-1.455.855-1.985a.734.734 0 0 0-.1-.406.324.324 0 0 0-.06-.075.34.34 0 0 0-.069-.054.723.723 0 0 0-.41-.104c-.53 0-1.271.32-1.986.855-.577.432-1.155 1.04-1.954 1.883l-.43.451-1.548-.464.004-.005a.345.345 0 0 0 0-.489l-.28-.28a.348.348 0 0 0-.492 0l-.418.418-.222-.066a.338.338 0 0 0 .074-.21.34.34 0 0 0-.101-.248l-.281-.28a.348.348 0 0 0-.49 0l-.385.384-1.574-.472a.417.417 0 0 0-.404.102l-.554.554a.326.326 0 0 0-.097.228.318.318 0 0 0 .169.285l3.311 1.85a.575.575 0 0 1 .08.06l.945.944c-.883.93-1.67 1.832-2.283 2.615-.057.073-.112.144-.165.215l-2.561-.233a.473.473 0 0 0-.362.129l-.258.257a.315.315 0 0 0 .087.518l1.802.856a.421.421 0 0 1 .07.05l.149.148c-.047.132-.07.246-.072.347 0 .134.043.249.126.332l.006.005.002.002a.456.456 0 0 0 .331.124c.098-.002.212-.025.344-.072l.152.152a.41.41 0 0 1 .047.068l.854 1.798a.318.318 0 0 0 .287.189h.002a.32.32 0 0 0 .228-.096l.264-.265a.471.471 0 0 0 .125-.35l-.233-2.57.214-.164a37.342 37.342 0 0 0 2.615-2.283l.944.946a.506.506 0 0 1 .062.08l1.846 3.306a.321.321 0 0 0 .516.076l.557-.558a.423.423 0 0 0 .1-.4l-.472-1.574.383-.385a.347.347 0 0 0 0-.49l-.28-.28a.347.347 0 0 0-.459-.03l-.066-.22.42-.419a.35.35 0 0 0 0-.49l-.28-.28a.348.348 0 0 0-.493 0l-.003.002-.463-1.548.457-.435c.84-.797 1.446-1.372 1.877-1.949z"/></g></svg>