<svg xmlns="http://www.w3.org/2000/svg" width="17" height="22" viewBox="0 0 17 22"><path fill="#FFF" d="M.056 11.719a8.358 8.358 0 0 1 .28-3.313c1.006-3.438 4.162-5.966 7.905-6.01V.147c0-.125.155-.192.258-.116l4.615 3.398c.076.058.076.174 0 .227l-4.61 3.398c-.108.076-.259.009-.259-.116V4.696a6.04 6.04 0 0 0-5.465 3.71 5.982 5.982 0 0 0 .85 6.095 1.152 1.152 0 1 1-1.812 1.427 8.253 8.253 0 0 1-1.762-4.21zM13.38 7.403a5.961 5.961 0 0 1 1.318 3.446 6.022 6.022 0 0 1-.468 2.649c-.903 2.15-3.004 3.674-5.465 3.71v-2.243c0-.125-.156-.192-.258-.116l-4.616 3.398c-.075.058-.075.174 0 .227l4.611 3.398c.107.076.258.009.258-.116v-2.247c3.743-.04 6.903-2.569 7.905-6.011a8.44 8.44 0 0 0 .28-3.313 8.21 8.21 0 0 0-1.758-4.21 1.157 1.157 0 0 0-1.593-.222 1.155 1.155 0 0 0-.214 1.65z"/></svg>