<svg xmlns="http://www.w3.org/2000/svg" width="26" height="35" viewBox="0 0 26 35"><path fill="#FFF" d="M25.926 20.492c-.397-5.22-2.804-8.49-4.928-11.377-1.966-2.673-3.665-4.98-3.665-8.385a.731.731 0 0 0-.392-.648.71.71 0 0 0-.75.055C13 2.441 10.34 6.325 9.41 10.03c-.646 2.58-.73 5.48-.743 7.395-2.945-.635-3.612-5.083-3.62-5.131a.733.733 0 0 0-.375-.541.713.713 0 0 0-.655-.013c-.154.076-3.79 1.941-4.002 9.39a12.47 12.47 0 0 0-.016.745c0 7.236 5.832 13.124 13 13.124.01 0 .02.002.029 0h.01c7.15-.02 12.961-5.9 12.961-13.124 0-.364-.074-1.383-.074-1.383zM13 33.541c-2.39 0-4.333-2.09-4.333-4.66 0-.088-.001-.176.005-.285.03-1.083.233-1.823.457-2.315.419.908 1.168 1.744 2.384 1.744.4 0 .723-.327.723-.73 0-1.038.02-2.235.277-3.316.228-.959.772-1.978 1.462-2.796.307 1.061.905 1.92 1.489 2.758.835 1.2 1.7 2.439 1.851 4.553.01.125.018.251.018.386 0 2.57-1.943 4.66-4.333 4.66z"/></svg>